<svg xmlns="http://www.w3.org/2000/svg" width="221.136" height="30.348" viewBox="0 0 221.136 30.348"><defs><style>.a{fill:#fff;}.b{fill:#ddd;}.c{fill:#323234;}</style></defs><g transform="translate(-6.13 -6.94)"><path class="a" d="M116.582,33.28l1.4,6.1c.2.835.308,1.538.459,2.2h.046c.106-.6.285-1.409.459-2.176L120.2,33.28h1.666l-1.735,6.83c-.656,2.68-1.377,5.251-2.635,6.853a5.838,5.838,0,0,1-1.909,1.625l-.615-1.45a5.108,5.108,0,0,0,1.492-1.34,6.393,6.393,0,0,0,.968-1.776,1.524,1.524,0,0,0,.11-.528,1.152,1.152,0,0,0-.046-.395l-2.68-9.818Z" transform="translate(-58.804 -14.251)"/><path class="a" d="M133.2,35.8c0-1.253-.064-1.891-.087-2.754h1.473l.087,1.271h.041a2.713,2.713,0,0,1,2.442-1.45c1.469,0,2.566,1.1,2.566,3.672v7.146H138.03V36.835c0-1.253-.243-2.524-1.473-2.524-.7,0-1.377.592-1.6,1.735a6.266,6.266,0,0,0-.064.941v6.7H133.2Z" transform="translate(-68.699 -14.028)"/><path class="a" d="M156.15,43.7l-.11-1.12h-.064a2.382,2.382,0,0,1-2.107,1.294c-1.427,0-2.529-1.207-2.529-3.029,0-2.657,2.134-3.846,4.526-3.865v-.33c0-1.427-.349-2.419-1.689-2.419a3.213,3.213,0,0,0-1.758.551l-.372-1.184a4.548,4.548,0,0,1,2.478-.707c2.13,0,3.052,1.409,3.052,3.8v4.59a16.865,16.865,0,0,0,.11,2.419Zm-.239-5.508c-.881,0-2.924.156-2.924,2.46,0,1.377.7,1.891,1.3,1.891.744,0,1.377-.551,1.579-1.6a2.7,2.7,0,0,0,.046-.6Z" transform="translate(-78.562 -14.039)"/><path class="a" d="M170,35.8c0-1.253-.064-1.891-.087-2.754h1.473l.087,1.317h.041a2.671,2.671,0,0,1,2.4-1.5,2.217,2.217,0,0,1,2.217,1.629h.046a3.369,3.369,0,0,1,1.056-1.212,2.561,2.561,0,0,1,1.469-.418c1.427,0,2.547,1.056,2.547,3.759v7.059H179.59V37.031c0-1.377-.2-2.722-1.5-2.722-.7,0-1.317.592-1.561,1.579a6.851,6.851,0,0,0-.064.968v6.83H174.8V36.724c0-1.189-.216-2.414-1.469-2.414-.684,0-1.377.592-1.583,1.712a6.424,6.424,0,0,0-.064.918v6.747H170Z" transform="translate(-88.609 -14.027)"/><path class="a" d="M198.652,41.94a3.346,3.346,0,0,0,1.712.551,1.437,1.437,0,0,0,1.56-1.538c0-.812-.285-1.377-1.377-2.088-1.377-.918-2.13-1.8-2.13-3.029a2.859,2.859,0,0,1,2.919-2.947,3.672,3.672,0,0,1,1.914.551l-.459,1.276a2.469,2.469,0,0,0-1.4-.459,1.3,1.3,0,0,0-1.377,1.34c0,.725.262,1.12,1.317,1.836,1.23.789,2.194,1.758,2.194,3.213a2.964,2.964,0,0,1-3.185,3.162,3.635,3.635,0,0,1-2.107-.61Z" transform="translate(-103.93 -14.039)"/><path class="a" d="M219.581,38.416c0,4.131-1.909,5.508-3.534,5.508-1.909,0-3.447-1.735-3.447-5.466,0-3.888,1.735-5.508,3.557-5.508S219.581,34.7,219.581,38.416Zm-5.292,0c0,1.758.308,4.131,1.836,4.131,1.45,0,1.735-2.5,1.735-4.131s-.285-4.131-1.781-4.131S214.289,36.792,214.289,38.416Z" transform="translate(-111.705 -14.072)"/><path class="a" d="M231.11,38.287V28.951h-1.34V27.657h1.34v-.638a4.779,4.779,0,0,1,.945-3.213,2.882,2.882,0,0,1,2.13-.918,2.919,2.919,0,0,1,1.317.266l-.285,1.317a2.189,2.189,0,0,0-.918-.179c-1.207,0-1.492,1.3-1.492,2.68v.661h1.932v1.317h-1.932v9.336Z" transform="translate(-120.994 -8.627)"/><path class="a" d="M244.042,27.15v2.814h2.029v1.294h-2.042v6.3c0,1.377.5,1.758,1.12,1.758a3.286,3.286,0,0,0,.679-.064l.064,1.294a3.672,3.672,0,0,1-1.248.174,2.162,2.162,0,0,1-1.671-.633,3.9,3.9,0,0,1-.638-2.68v-6.15H241.04V29.964h1.294V27.637Z" transform="translate(-127.091 -10.934)"/><path class="a" d="M263.075,24.324a10.354,10.354,0,0,1,2.483-.285,4.619,4.619,0,0,1,3.272,1.033,3.355,3.355,0,0,1,.964,2.524,3.419,3.419,0,0,1-2.295,3.3v.046a3.649,3.649,0,0,1,2.754,3.777,4.245,4.245,0,0,1-1.056,2.942,5.04,5.04,0,0,1-3.91,1.34,11.553,11.553,0,0,1-2.217-.156Zm1.689,6.063h.771a2.543,2.543,0,0,0,2.57-2.612,2.167,2.167,0,0,0-2.437-2.419,3.075,3.075,0,0,0-.918.11Zm0,7.183a4.131,4.131,0,0,0,.858.087,2.68,2.68,0,0,0,2.9-2.942,2.864,2.864,0,0,0-3.011-3.034h-.748Z" transform="translate(-139.01 -9.251)"/><path class="a" d="M286.46,43.693l-.11-1.12h-.069a2.382,2.382,0,0,1-2.107,1.294c-1.427,0-2.524-1.207-2.524-3.029,0-2.657,2.13-3.846,4.521-3.865v-.33c0-1.427-.349-2.419-1.689-2.419a3.213,3.213,0,0,0-1.753.546l-.372-1.184a4.549,4.549,0,0,1,2.478-.707c2.134,0,3.057,1.409,3.057,3.8v4.59A17.584,17.584,0,0,0,288,43.689Zm-.243-5.508c-.881,0-2.924.156-2.924,2.46,0,1.377.707,1.891,1.3,1.891.744,0,1.377-.551,1.579-1.6a2.7,2.7,0,0,0,.046-.6Z" transform="translate(-149.062 -14.034)"/><path class="a" d="M300.257,35.814c0-.918-.069-1.955-.087-2.754h1.515l.087,1.666h.041a2.584,2.584,0,0,1,2.244-1.836h.349v1.735a2.106,2.106,0,0,0-.349,0,2.3,2.3,0,0,0-2.047,2.217,6.825,6.825,0,0,0-.064.964V43.7h-1.689Z" transform="translate(-159.082 -14.04)"/><path class="a" d="M316.241,43.46a3.626,3.626,0,0,1-1.753.395c-2.332,0-3.888-1.863-3.888-5.379,0-3.052,1.538-5.535,4.2-5.535a3.433,3.433,0,0,1,1.492.33l-.33,1.377a2.754,2.754,0,0,0-1.207-.289c-1.689,0-2.46,2.024-2.46,4.131,0,2.483.945,3.975,2.506,3.975a2.933,2.933,0,0,0,1.23-.285Z" transform="translate(-164.725 -14.066)"/><path class="a" d="M331.766,38.416c0,4.131-1.909,5.508-3.539,5.508-1.909,0-3.447-1.735-3.447-5.466,0-3.888,1.735-5.508,3.557-5.508C330.219,32.922,331.766,34.7,331.766,38.416Zm-5.292,0c0,1.758.308,4.131,1.836,4.131,1.446,0,1.735-2.5,1.735-4.131s-.289-4.131-1.781-4.131-1.8,2.506-1.8,4.131Z" transform="translate(-172.397 -14.072)"/><path class="a" d="M349.923,23.32V35.974c0,.725.064,1.932.087,2.547h-1.45l-.11-1.34h-.064a2.451,2.451,0,0,1-2.217,1.515c-1.8,0-3.1-1.955-3.1-5.448,0-3.777,1.561-5.535,3.213-5.535a2.065,2.065,0,0,1,1.932,1.276h.041V23.32Zm-1.671,8.61c0-.22,0-.459-.023-.7-.106-1.1-.767-2.065-1.579-2.065-1.4,0-1.891,1.955-1.891,4.085,0,2.24.574,4.044,1.8,4.044.528,0,1.253-.285,1.625-1.836a3.521,3.521,0,0,0,.064-.7Z" transform="translate(-182.292 -8.862)"/><path class="a" d="M363.828,38.535c.023,3.25,1.294,3.956,2.524,3.956a3.608,3.608,0,0,0,1.758-.418l.266,1.248a5.136,5.136,0,0,1-2.332.5c-2.547,0-3.865-2.084-3.865-5.333,0-3.452,1.45-5.6,3.58-5.6s3.034,2.295,3.034,4.7v.918Zm3.318-1.248c.046-2.134-.767-3.075-1.579-3.075-1.1,0-1.671,1.625-1.735,3.075Z" transform="translate(-192.631 -14.04)"/><path class="a" d="M388.338,24.324a9.638,9.638,0,0,1,2.437-.285,4.543,4.543,0,0,1,3.337,1.056,3.989,3.989,0,0,1,1.033,2.9,3.855,3.855,0,0,1-2.382,3.8v.032c1.1.33,1.671,1.377,2,3.318A21.027,21.027,0,0,0,395.6,38.9h-1.717a19.481,19.481,0,0,1-.789-3.672c-.33-2.024-.964-2.791-2.414-2.791h-.67V38.91H388.32Zm1.671,6.834h.7a2.686,2.686,0,0,0,2.7-2.965c0-1.776-.7-2.754-2.524-2.791a3.484,3.484,0,0,0-.881.087Z" transform="translate(-206.773 -9.251)"/><path class="a" d="M408.288,38.535c0,3.25,1.294,3.956,2.524,3.956a3.607,3.607,0,0,0,1.758-.418l.262,1.248a5.1,5.1,0,0,1-2.327.5c-2.547,0-3.865-2.084-3.865-5.333,0-3.452,1.45-5.6,3.58-5.6s3.029,2.295,3.029,4.7c0,.395,0,.679-.023.918Zm3.337-1.248c.046-2.134-.766-3.075-1.583-3.075-1.1,0-1.666,1.625-1.735,3.075Z" transform="translate(-216.685 -14.04)"/><path class="a" d="M428.48,43.693l-.11-1.12h-.064a2.387,2.387,0,0,1-2.107,1.294c-1.427,0-2.529-1.207-2.529-3.029,0-2.657,2.13-3.846,4.526-3.865v-.33c0-1.427-.353-2.419-1.689-2.419a3.213,3.213,0,0,0-1.767.546l-.376-1.184a4.59,4.59,0,0,1,2.483-.707c2.13,0,3.052,1.409,3.052,3.8v4.59a16.861,16.861,0,0,0,.11,2.419Zm-.239-5.508c-.881,0-2.924.156-2.924,2.46,0,1.377.7,1.891,1.3,1.891.744,0,1.377-.551,1.579-1.6a2.7,2.7,0,0,0,.046-.6Z" transform="translate(-225.898 -14.034)"/><path class="a" d="M448.277,23.32V35.974c0,.725.064,1.932.087,2.547h-1.45l-.11-1.34h-.069a2.456,2.456,0,0,1-2.221,1.515c-1.8,0-3.094-1.955-3.094-5.448,0-3.777,1.556-5.535,3.213-5.535a2.056,2.056,0,0,1,1.932,1.276h.046V23.32Zm-1.671,8.61c0-.22,0-.459-.023-.7-.11-1.1-.767-2.065-1.579-2.065-1.409,0-1.891,1.955-1.891,4.085,0,2.24.574,4.044,1.8,4.044.523,0,1.248-.285,1.625-1.836a3.517,3.517,0,0,0,.064-.7Z" transform="translate(-235.501 -8.862)"/><path class="a" d="M462.168,38.535c.023,3.25,1.294,3.956,2.524,3.956a3.608,3.608,0,0,0,1.758-.418l.262,1.248a5.1,5.1,0,0,1-2.327.5c-2.547,0-3.865-2.084-3.865-5.333,0-3.452,1.45-5.6,3.58-5.6s3.029,2.295,3.029,4.7v.918Zm3.337-1.248c.046-2.134-.767-3.075-1.579-3.075-1.1,0-1.671,1.625-1.735,3.075Z" transform="translate(-245.835 -14.04)"/><path class="a" d="M478.747,35.814c0-.918-.069-1.955-.087-2.754h1.533l.087,1.666h.046a2.573,2.573,0,0,1,2.24-1.836h.349v1.735a2.106,2.106,0,0,0-.349,0,2.294,2.294,0,0,0-2.042,2.217,6.179,6.179,0,0,0-.069.964V43.7h-1.689Z" transform="translate(-255.649 -14.04)"/><path class="a" d="M92.76,38.3V22.69h4.08c2.933,0,4.356,1.46,4.356,4.461v6.7c0,3.006-1.423,4.466-4.356,4.466Zm1.551-1.538H96.84a2.559,2.559,0,0,0,2.8-2.648V26.858a2.556,2.556,0,0,0-2.8-2.644H94.311Z" transform="translate(-46.869 -8.521)"/><rect class="a" width="29.889" height="29.889" rx="4" transform="translate(6.359 7.169)"/><path class="b" d="M33.494,7.4a2.529,2.529,0,0,1,2.524,2.524V34.3a2.529,2.529,0,0,1-2.524,2.524H9.113A2.524,2.524,0,0,1,6.589,34.3V9.923A2.524,2.524,0,0,1,9.113,7.4H33.494m0-.459H9.113A2.983,2.983,0,0,0,6.13,9.923V34.3a2.983,2.983,0,0,0,2.983,2.983H33.494A2.983,2.983,0,0,0,36.478,34.3V9.923A2.983,2.983,0,0,0,33.494,6.94Z" transform="translate(0)"/><path class="c" d="M22.743,26H19.37V38.727h3.378c2.295,0,3.6-1.074,3.6-3.672V29.672C26.342,27.088,25.029,26,22.743,26Zm2.134,9.271a1.939,1.939,0,0,1-2.134,2.006H20.83V27.46h1.914a1.94,1.94,0,0,1,2.134,2.01Z" transform="translate(-7.163 -10.312)"/><path class="c" d="M40.61,32.213a1.932,1.932,0,0,0-1.74,1V29.826a2.254,2.254,0,0,1-.886-.285A2.3,2.3,0,0,1,37.31,29h0v.918h0V40.332h1.561V39.35c.376.739.707,1.115,1.446,1.115,1.377,0,2.524-1.441,2.524-4.282C42.841,33.824,42.019,32.213,40.61,32.213Zm-.688,6.811c-.294,0-.707-.184-.918-1.019a4.7,4.7,0,0,1-.133-.744V35.5a5.75,5.75,0,0,1,.1-.762c.1-.523.459-1.033.918-1.033.835,0,1.377,1.221,1.377,2.7C41.3,38.014,40.757,39.024,39.922,39.024Z" transform="translate(-16.869 -11.935)"/><path class="c" d="M54.433,36.159a2.01,2.01,0,0,0-1.726,1.34h0V36.292h0a2.671,2.671,0,0,1-.569.395,2.414,2.414,0,0,1-.918.28v7.256h1.492V40.037a3.291,3.291,0,0,1,.064-.766,1.836,1.836,0,0,1,1.68-1.377,1.221,1.221,0,0,1,.335.028V36.177A2.245,2.245,0,0,0,54.433,36.159Z" transform="translate(-24.395 -15.808)"/></g></svg>